PathFileType	4	(X/Y/Z)	Walk1.trc
DataRate	CameraRate	NumFrames	NumMarkers	Units	OrigDataRate	OrigDataStartFrame	OrigNumFrames
200.000000	200.000000	4	56	mm	200.000000	215	536
Frame#	Times		RBHD		C7		T10		CLAV		RBack		LASI		RASI		LPSI		RACR1		RUA1		RElbow		RFA1		RWRR		RWRU		RCAR		LACR1		LElbow		LElbowM		LFA1		LWRR		LWRU		RTH1		RTH3		RTH2		RTH4		RLFC		RTB1		RTB3		RTB2		RTB4		RMMAL		RMT1		RMT5		LTH3		LTH2		LTH4		LTB1		RPSI		LBHD		LLFC		LTB4		LTH1		LTB3		LFHD		RElbowM		LMT1		LCAL		LMT5		RLMAL		LLMAL		LTB2		LCAR		RToe		LToe		LUA1		RCAL
			X1	Y1	Z1	X2	Y2	Z2	X3	Y3	Z3	X4	Y4	Z4	X5	Y5	Z5	X6	Y6	Z6	X7	Y7	Z7	X8	Y8	Z8	X9	Y9	Z9	X10	Y10	Z10	X11	Y11	Z11	X12	Y12	Z12	X13	Y13	Z13	X14	Y14	Z14	X15	Y15	Z15	X16	Y16	Z16	X17	Y17	Z17	X18	Y18	Z18	X19	Y19	Z19	X20	Y20	Z20	X21	Y21	Z21	X22	Y22	Z22	X23	Y23	Z23	X24	Y24	Z24	X25	Y25	Z25	X26	Y26	Z26	X27	Y27	Z27	X28	Y28	Z28	X29	Y29	Z29	X30	Y30	Z30	X31	Y31	Z31	X32	Y32	Z32	X33	Y33	Z33	X34	Y34	Z34	X35	Y35	Z35	X36	Y36	Z36	X37	Y37	Z37	X38	Y38	Z38	X39	Y39	Z39	X40	Y40	Z40	X41	Y41	Z41	X42	Y42	Z42	X43	Y43	Z43	X44	Y44	Z44	X45	Y45	Z45	X46	Y46	Z46	X47	Y47	Z47	X48	Y48	Z48	X49	Y49	Z49	X50	Y50	Z50	X51	Y51	Z51	X52	Y52	Z52	X53	Y53	Z53	X54	Y54	Z54	X55	Y55	Z55	X56	Y56	Z56

215	1.075	-547.99	1541.9	382.69	-557.64	1416.1	308.33	-650.78	1107.9	290.1	-420.47	1335.8	305.94	-636.12	1327.7	391.81	-469.8	922.74	139.86	-460.66	917.23	442.9	-641.81	937.46	241.84	-504.5	1368.5	464.25	-591.85	1189.6	536.66	-664.34	1075.4	553.9	-653.27	928.36	582.3	-611.09	788.45	553.62	-685.13	800.63	574.61	-653.36	740.47	586.72	-501.2	1408.6	138.83	-554.27	1088.1	9.3685	-584.25	1081	84.409	-429.41	983.16	-8.1011	-348.58	905.82	40.607	-408.84	865.91	1.9614	-462.3	719.85	496.38	-377.98	552.73	463.69	-364.18	670.14	449.53	-419.5	635.67	485.35	-338.62	462.31	442.88	-278.89	388.76	362.73	-234.05	203.81	361.18	-268.69	292.18	434.75	-254.43	299.26	363.16	-239.36	109.83	314.28	-105.45	77.225	315.84	-126.73	62.195	396.46	-595.28	548.81	131.26	-504.83	618.42	155.85	-569.77	633.76	115.92	-645.93	337.87	211.41	-642.3	935.85	347.02	-536	1547.5	245.1	-646.67	438.3	149.78	-697.84	260.86	222.23	-540.87	726.25	106.66	-744.71	181.58	230.86	-360.62	1592.6	285.65	-675.22	1053.4	459.47	-709.01	36.584	285.12	-916.35	67.397	259.16	-739.98	30.031	194.82	-260.9	85.631	399.61	-858.55	96.676	210.49	-723.88	269.62	155.44	-326.14	856.48	-5.3161	-62.247	96.815	343.39	-661.04	27.43	272.39	-527.84	1218	33.512	-293.22	25.967	355.81
216	1.08	-541.99	1540.8	383.55	-551.52	1414.7	309.14	-644.12	1106.9	290.55	-414.3	1335.1	306.59	-629.9	1326.5	392.31	-463.22	921.9	140.27	-453.53	916.54	443.3	-634.99	936.43	242.58	-498.81	1367.4	464.74	-585.61	1188.3	537.13	-658.08	1074.1	554.1	-646.84	926.95	582.4	-604.77	787.17	554.02	-679.1	799.19	574.78	-647.01	739.06	586.83	-494.77	1407.9	139.57	-547.62	1087	9.9226	-577.83	1080	84.681	-422.5	982.36	-7.5134	-341.86	905	41.31	-402.18	865.18	2.6416	-454.06	719.25	495.91	-369.98	552.26	463.18	-355.51	669.67	449.59	-411.16	635.33	485.03	-330.73	461.55	442.49	-272.76	386.96	361.68	-230.18	201.28	360.19	-263.2	289.92	434.14	-249.13	296.78	362.44	-237.29	107.3	313.63	-103.48	73.913	313.85	-124.25	59.427	394.66	-589.55	548.02	131.42	-499.03	617.46	155.79	-564.01	632.97	116.11	-642.07	337.06	211.38	-635.23	934.85	347.61	-530.1	1546.7	246.01	-641.71	437.66	149.79	-694.5	260.78	221.98	-534.95	725.48	107.02	-742.48	182.05	230.6	-354.8	1591.6	286.53	-668.94	1052	459.8	-708.94	36.624	285.03	-915.44	70.042	258.8	-739.86	30.048	194.82	-258.23	83.473	398.81	-857.45	98.63	210.11	-720.68	269.9	155.33	-319.23	855.62	-4.576	-59.966	93.407	340.98	-661.06	27.261	272.55	-521.38	1217	34.022	-291.97	25.484	355.9
217	1.085	-536.14	1540	384.37	-545.33	1413.9	309.83	-637.27	1105.5	291.35	-408.02	1334.1	307.21	-623.92	1325.3	392.65	-456.56	921.03	140.65	-445.68	915.42	443.8	-627.86	935.54	243.43	-492.98	1366.5	465.4	-579.44	1187.2	537.46	-651.74	1072.6	554.15	-640.73	926.07	583.03	-598.87	785.71	554.46	-672.91	797.91	574.76	-640.82	737.56	587.07	-488.72	1407.1	140.13	-541	1086.1	10.379	-571.31	1079	85.09	-415.88	981.6	-7.1108	-335.46	904.18	41.986	-395.52	864.21	3.2766	-446.05	718.77	495.28	-362.21	551.51	462.55	-347.3	669.12	449.76	-403.17	634.57	484.54	-322.88	460.59	441.57	-267.01	384.93	360.59	-226.61	198.81	359.01	-257.52	287.87	433.15	-244.48	294.65	361.52	-235.46	104.58	312.62	-102.25	70.514	312.02	-122.19	56.571	392.63	-583.86	547.5	131.59	-493.12	616.57	155.69	-558.18	632.35	116.34	-637.78	336.22	211.43	-628.18	934.06	348.45	-524.11	1545.8	246.86	-636.3	437.13	150	-691.26	260.82	221.77	-529	724.88	107.3	-740.2	182.61	230.12	-349.01	1590.9	287.46	-662.19	1050.4	460.06	-708.92	36.676	284.95	-914.57	72.913	258.43	-739.66	30.068	194.83	-255.81	81.542	398.39	-856.23	100.64	209.74	-717.32	270.2	155.22	-312.43	854.88	-3.8363	-58.218	89.898	338.36	-661.08	27.344	272.44	-514.69	1216.3	34.525	-290.97	24.57	356.16
218	1.09	-530.15	1539	385.16	-539.26	1412.9	310.35	-630.4	1104.2	292.01	-401.57	1333.5	308.13	-617.56	1323.9	393.32	-449.86	920.05	140.93	-438.22	914.38	444.19	-621.11	934.75	244.04	-487.05	1365.5	466.14	-573.27	1185.9	537.91	-645.28	1071.4	554.5	-634.43	924.86	583.4	-592.24	784.43	554.87	-666.6	796.67	575.13	-634.33	736.38	587.48	-482.62	1406.2	140.79	-534.49	1085.4	10.923	-564.64	1078.1	85.604	-409.19	980.77	-6.3825	-328.78	903.37	42.601	-388.79	863.51	3.9975	-438.06	718.27	494.7	-354.59	550.62	461.51	-339.07	668.5	449.73	-395.35	633.61	483.65	-315.23	459.33	440.9	-261.09	382.87	359.77	-222.7	196.28	357.61	-252.12	285.86	432.1	-239.24	292.42	360.1	-233.69	102.12	311.65	-101.05	66.095	310.39	-120.62	51.845	390.6	-577.91	546.92	131.58	-486.95	615.85	155.69	-552.17	631.67	116.35	-633.09	335.44	211.25	-621.07	933.08	349.26	-518.18	1544.9	247.67	-630.69	436.81	150.07	-687.87	260.74	221.58	-522.82	724.46	107.51	-737.74	183.09	229.74	-342.83	1590	288.26	-655.55	1049.3	460.34	-708.89	36.717	284.83	-913.8	76.051	257.84	-739.48	30.041	194.77	-253.49	79.424	397.41	-854.79	102.71	209.05	-713.58	270.7	154.94	-306.02	854.07	-3.2952	-56.804	85.626	334.91	-661.13	27.428	272.36	-508.12	1215.7	35.078	-290.7	24.899	355.79
